<svg width="92" height="30" viewBox="0 0 92 30" fill="none" xmlns="http://www.w3.org/2000/svg">
<path d="M15.92 29.48C13.7067 29.48 11.6533 29.12 9.76 28.4C7.89333 27.68 6.26667 26.6667 4.88 25.36C3.52 24.0533 2.45333 22.52 1.68 20.76C0.933333 19 0.56 17.08 0.56 15C0.56 12.92 0.933333 11 1.68 9.24C2.45333 7.48 3.53333 5.94667 4.92 4.64C6.30667 3.33333 7.93333 2.32 9.8 1.6C11.6667 0.879999 13.6933 0.52 15.88 0.52C18.0933 0.52 20.12 0.879999 21.96 1.6C23.8267 2.32 25.44 3.33333 26.8 4.64C28.1867 5.94667 29.2667 7.48 30.04 9.24C30.8133 10.9733 31.2 12.8933 31.2 15C31.2 17.08 30.8133 19.0133 30.04 20.8C29.2667 22.56 28.1867 24.0933 26.8 25.4C25.44 26.68 23.8267 27.68 21.96 28.4C20.12 29.12 18.1067 29.48 15.92 29.48ZM15.88 23.96C17.1333 23.96 18.28 23.7467 19.32 23.32C20.3867 22.8933 21.32 22.28 22.12 21.48C22.92 20.68 23.5333 19.7333 23.96 18.64C24.4133 17.5467 24.64 16.3333 24.64 15C24.64 13.6667 24.4133 12.4533 23.96 11.36C23.5333 10.2667 22.92 9.32 22.12 8.52C21.3467 7.72 20.4267 7.10666 19.36 6.68C18.2933 6.25333 17.1333 6.04 15.88 6.04C14.6267 6.04 13.4667 6.25333 12.4 6.68C11.36 7.10666 10.44 7.72 9.64 8.52C8.84 9.32 8.21333 10.2667 7.76 11.36C7.33333 12.4533 7.12 13.6667 7.12 15C7.12 16.3067 7.33333 17.52 7.76 18.64C8.21333 19.7333 8.82667 20.68 9.6 21.48C10.4 22.28 11.3333 22.8933 12.4 23.32C13.4667 23.7467 14.6267 23.96 15.88 23.96ZM45.47 29.48C43.4167 29.48 41.59 29.1467 39.99 28.48C38.39 27.8133 37.1233 26.9067 36.19 25.76C35.2567 24.6133 34.79 23.2933 34.79 21.8C34.79 20.4133 35.0967 19.1733 35.71 18.08C36.3233 16.96 37.2967 15.92 38.63 14.96C39.9633 13.9733 41.6567 13.0133 43.71 12.08C45.2033 11.3867 46.3767 10.7733 47.23 10.24C48.0833 9.70667 48.6833 9.2 49.03 8.72C49.3767 8.21333 49.55 7.70667 49.55 7.2C49.55 6.50667 49.31 5.94667 48.83 5.52C48.3767 5.09333 47.6967 4.88 46.79 4.88C45.83 4.88 45.0833 5.12 44.55 5.6C44.0167 6.08 43.75 6.69333 43.75 7.44C43.75 7.84 43.83 8.24 43.99 8.64C44.15 9.01333 44.4567 9.45333 44.91 9.96C45.3633 10.44 46.0033 11.0667 46.83 11.84L61.59 25.52L58.19 29.48L41.91 14.36C40.9767 13.5067 40.23 12.7067 39.67 11.96C39.11 11.2133 38.6967 10.48 38.43 9.76C38.19 9.04 38.07 8.29333 38.07 7.52C38.07 6.16 38.43 4.96 39.15 3.92C39.87 2.88 40.8833 2.08 42.19 1.52C43.4967 0.933331 45.03 0.639998 46.79 0.639998C48.4167 0.639998 49.8167 0.906665 50.99 1.44C52.19 1.94667 53.1233 2.68 53.79 3.64C54.4833 4.6 54.83 5.74666 54.83 7.08C54.83 8.25333 54.5367 9.33333 53.95 10.32C53.3633 11.28 52.4433 12.1867 51.19 13.04C49.9633 13.8933 48.35 14.76 46.35 15.64C44.99 16.2533 43.91 16.8533 43.11 17.44C42.3367 18 41.7767 18.5733 41.43 19.16C41.0833 19.7467 40.91 20.4 40.91 21.12C40.91 21.7867 41.11 22.3867 41.51 22.92C41.9367 23.4533 42.5233 23.8667 43.27 24.16C44.0167 24.4533 44.8967 24.6 45.91 24.6C47.5367 24.6 49.03 24.2267 50.39 23.48C51.75 22.7067 52.8967 21.5733 53.83 20.08C54.79 18.56 55.47 16.72 55.87 14.56L60.87 16.12C60.31 18.84 59.31 21.2 57.87 23.2C56.43 25.2 54.6567 26.7467 52.55 27.84C50.4433 28.9333 48.0833 29.48 45.47 29.48ZM79.8916 29.48C77.6782 29.48 75.6382 29.1333 73.7716 28.44C71.9316 27.72 70.3182 26.7067 68.9316 25.4C67.5716 24.0933 66.5049 22.56 65.7316 20.8C64.9849 19.04 64.6116 17.1067 64.6116 15C64.6116 12.8933 64.9849 10.96 65.7316 9.2C66.5049 7.44 67.5849 5.90667 68.9716 4.6C70.3582 3.29333 71.9849 2.29333 73.8516 1.6C75.7182 0.879999 77.7716 0.52 80.0116 0.52C82.4916 0.52 84.7182 0.933332 86.6916 1.76C88.6916 2.58666 90.3716 3.78667 91.7316 5.36L87.5716 9.2C86.5582 8.13333 85.4516 7.34667 84.2516 6.84C83.0516 6.30667 81.7449 6.04 80.3316 6.04C78.9716 6.04 77.7316 6.25333 76.6116 6.68C75.4916 7.10666 74.5182 7.72 73.6916 8.52C72.8916 9.32 72.2649 10.2667 71.8116 11.36C71.3849 12.4533 71.1716 13.6667 71.1716 15C71.1716 16.3067 71.3849 17.5067 71.8116 18.6C72.2649 19.6933 72.8916 20.6533 73.6916 21.48C74.5182 22.28 75.4782 22.8933 76.5716 23.32C77.6916 23.7467 78.9182 23.96 80.2516 23.96C81.5316 23.96 82.7716 23.76 83.9716 23.36C85.1982 22.9333 86.3849 22.2267 87.5316 21.24L91.2116 25.92C89.6916 27.0667 87.9182 27.9467 85.8916 28.56C83.8916 29.1733 81.8916 29.48 79.8916 29.48ZM85.2916 25.08V14.56H91.2116V25.92L85.2916 25.08Z" fill="#B59571"/>
</svg>
